<svg width="71" height="35" viewBox="0 0 71 35" fill="none" xmlns="http://www.w3.org/2000/svg">
<path d="M32.0005 14.613C32.0005 13.6966 32.2245 12.8916 32.6724 12.1981C33.1204 11.5046 33.7176 10.9597 34.4642 10.5634C35.2108 10.1672 36.0196 9.96901 36.8906 9.96901C37.7865 9.96901 38.6077 10.1672 39.3543 10.5634C40.1009 10.9597 40.6981 11.5046 41.1461 12.1981C41.594 12.8916 41.818 13.6966 41.818 14.613C41.818 15.5046 41.594 16.3096 41.1461 17.0278C40.6981 17.7213 40.1009 18.2662 39.3543 18.6625C38.6077 19.0588 37.7865 19.2569 36.8906 19.2569C36.0196 19.2569 35.2108 19.0588 34.4642 18.6625C33.7176 18.2662 33.1204 17.7213 32.6724 17.0278C32.2245 16.3096 32.0005 15.5046 32.0005 14.613ZM37.3012 27.5046C37.3012 26.1919 37.774 25.1145 38.7197 24.2724C39.6654 23.4303 40.8226 23.0093 42.1913 23.0093C43.5351 23.0093 44.6799 23.4303 45.6256 24.2724C46.5712 25.1145 47.0441 26.1919 47.0441 27.5046C47.0441 28.8421 46.5712 29.9195 45.6256 30.7368C44.6799 31.5789 43.5351 32 42.1913 32C40.8226 32 39.6654 31.5789 38.7197 30.7368C37.774 29.9195 37.3012 28.8421 37.3012 27.5046ZM47.8653 21.2631C47.8653 21.6099 47.7409 21.9071 47.492 22.1548C47.268 22.4024 46.9818 22.5263 46.6334 22.5263C46.285 22.5263 45.9864 22.4024 45.7375 22.1548C45.4887 21.9071 45.3643 21.6099 45.3643 21.2631V19.1455C45.3643 18.9226 45.3145 18.7244 45.2149 18.5511C45.1403 18.3529 44.9039 18.2538 44.5057 18.2538H43.3858C42.5895 18.2538 42.1913 17.8823 42.1913 17.1393C42.1913 16.8421 42.2784 16.582 42.4526 16.3591C42.6517 16.1362 42.9628 16.0247 43.3858 16.0247H44.5057C44.9039 16.0247 45.1403 15.9504 45.2149 15.8018C45.3145 15.6285 45.3643 15.4303 45.3643 15.2074V14.4644C45.3643 14.1919 45.3145 13.9814 45.2149 13.8328C45.1403 13.6594 44.9039 13.5727 44.5057 13.5727H43.3858C42.5895 13.5727 42.1913 13.2012 42.1913 12.4582C42.1913 12.161 42.2784 11.9009 42.4526 11.678C42.6517 11.4551 42.9628 11.3436 43.3858 11.3436H44.5057C44.9287 11.3436 45.1776 11.2322 45.2523 11.0093C45.3269 10.7863 45.3643 10.5263 45.3643 10.2291V9.44889C45.3643 9.32505 45.4389 9.10214 45.5882 8.78016C45.7375 8.43341 46.0859 8.24765 46.6334 8.22288C47.0067 8.22288 47.3054 8.33433 47.5293 8.55724C47.7533 8.78015 47.8653 9.07737 47.8653 9.44889V21.2631ZM34.4642 14.613C34.4642 15.3065 34.7006 15.8761 35.1734 16.322C35.6712 16.743 36.2435 16.9535 36.8906 16.9535C37.5625 16.9535 38.1349 16.743 38.6077 16.322C39.0805 15.8761 39.317 15.3065 39.317 14.613C39.317 13.8947 39.0805 13.325 38.6077 12.904C38.1349 12.4829 37.5625 12.2724 36.8906 12.2724C36.2435 12.2724 35.6712 12.4829 35.1734 12.904C34.7006 13.325 34.4642 13.8947 34.4642 14.613ZM39.7276 27.5046C39.7276 28.1981 39.964 28.7554 40.4368 29.1764C40.9346 29.5975 41.5194 29.808 42.1913 29.808C42.8383 29.808 43.3858 29.5975 43.8338 29.1764C44.3066 28.7554 44.543 28.1981 44.543 27.5046C44.543 26.8359 44.3066 26.2786 43.8338 25.8328C43.3858 25.4117 42.8383 25.2012 42.1913 25.2012C41.5194 25.2012 40.9346 25.4117 40.4368 25.8328C39.964 26.2786 39.7276 26.8359 39.7276 27.5046Z" fill="black"/>
<path d="M52.1867 15.8761C52.1867 15.0588 52.3858 14.3529 52.784 13.7585H51.8134C51.0419 13.7585 50.6562 13.3746 50.6562 12.6068C50.6562 11.839 51.0419 11.4551 51.8134 11.4551H54.7997C55.173 11.4551 55.3597 11.195 55.3597 10.6749V9.18882C55.3597 8.84207 55.4841 8.55724 55.733 8.33433C55.9818 8.11142 56.2804 7.99997 56.6288 7.99997C56.9772 7.99997 57.2634 8.11142 57.4874 8.33433C57.7363 8.55724 57.8607 8.84207 57.8607 9.18882V10.6377C57.8607 10.9597 57.8856 11.1702 57.9354 11.2693C58.01 11.3684 58.1718 11.4303 58.4206 11.4551H61.2203C61.5687 11.4551 61.8549 11.5665 62.0789 11.7894C62.3277 11.9876 62.4522 12.26 62.4522 12.6068C62.4522 12.9535 62.3277 13.2384 62.0789 13.4613C61.8549 13.6594 61.5687 13.7585 61.2203 13.7585H60.3991C60.5982 13.9814 60.7475 14.3158 60.847 14.7616C60.9714 15.1826 61.0337 15.5541 61.0337 15.8761C61.0337 17.0898 60.5982 18.0928 59.7271 18.8854C58.8561 19.6532 57.8234 20.0371 56.6288 20.0371C55.4094 20.0371 54.3642 19.6532 53.4932 18.8854C52.6222 18.0928 52.1867 17.0898 52.1867 15.8761ZM71.0005 21.2631C71.0005 21.6099 70.8885 21.9071 70.6645 22.1548C70.4406 22.4024 70.1544 22.5263 69.806 22.5263C69.4576 22.5263 69.1589 22.4024 68.9101 22.1548C68.6861 21.9071 68.5741 21.6099 68.5741 21.2631V17.548C68.5741 17.2755 68.4994 17.0278 68.3501 16.8049C68.2257 16.5572 67.9271 16.4334 67.4542 16.4334H67.1556C66.7823 16.4582 66.5086 16.582 66.3344 16.8049C66.1851 17.0031 66.1104 17.2507 66.1104 17.548V21.0774C66.1104 21.4241 65.9984 21.7213 65.7744 21.969C65.5505 22.2167 65.2643 22.3405 64.9159 22.3405C64.5426 22.3405 64.2439 22.2167 64.02 21.969C63.796 21.7213 63.684 21.4241 63.684 21.0774V10.7863C63.684 9.96901 64.0946 9.56034 64.9159 9.56034C65.4882 9.58511 65.8242 9.77087 65.9238 10.1176C66.0482 10.4396 66.1104 10.6625 66.1104 10.7863V12.904C66.1104 13.226 66.1726 13.5232 66.297 13.7956C66.4215 14.0681 66.7201 14.2043 67.1929 14.2043H67.4916C67.9893 14.1795 68.2879 14.0433 68.3875 13.7956C68.5119 13.5232 68.5741 13.226 68.5741 12.904V10.7863C68.5741 10.6625 68.6363 10.4396 68.7608 10.1176C68.9101 9.77087 69.2585 9.58511 69.806 9.56034C70.6023 9.56034 71.0005 9.96901 71.0005 10.7863V21.2631ZM54.4638 15.8018C54.4638 16.3963 54.6753 16.8792 55.0984 17.2507C55.5463 17.5975 56.0565 17.7709 56.6288 17.7709C57.1763 17.7709 57.6492 17.5975 58.0473 17.2507C58.4704 16.8792 58.6819 16.3963 58.6819 15.8018C58.6819 15.1826 58.4704 14.6873 58.0473 14.3158C57.6492 13.9442 57.1763 13.7585 56.6288 13.7585C56.0565 13.7585 55.5463 13.9442 55.0984 14.3158C54.6753 14.6873 54.4638 15.1826 54.4638 15.8018Z" fill="black"/>
<path fill-rule="evenodd" clip-rule="evenodd" d="M3.77591 29.9588C5.86133 32.3861 8.96958 32.4269 10.7184 30.05L17.2957 21.1105L16.5233 19.6692C15.5201 18.2458 14.2023 17.3946 12.8826 17.169L12.2665 17.1371L12.2539 17.1192L11.3463 17.0722C10.3565 16.9031 9.36778 16.382 8.51208 15.5315L7.90915 14.8142L3.16646 21.2602C1.41764 23.637 1.69051 27.5316 3.77591 29.9588Z" fill="#93FFCE"/>
<path fill-rule="evenodd" clip-rule="evenodd" d="M9.6221 13.6121C10.4643 14.4706 11.4086 15.0427 12.3317 15.2947L13.1714 15.4275L13.1842 15.445L13.7542 15.5351C14.9851 15.8711 16.2534 16.7762 17.2675 18.1706L18.07 19.5582L22.7434 13.2064C24.0239 11.4661 23.8045 8.51522 22.3397 6.18692L21.6364 5.23252L20.8254 4.42447C18.8665 2.7678 16.5104 2.72098 15.2299 4.46133L9.02125 12.8998L9.6221 13.6121Z" fill="#24E082"/>
<path fill-rule="evenodd" clip-rule="evenodd" d="M16.1114 18.6935C15.1487 17.7368 14.0363 17.1504 12.9229 16.9601L11.9019 16.9074L11.8876 16.8872L11.1944 16.8512C9.70986 16.5975 8.22704 15.6399 7.09865 14.0385L6.22961 12.417C5.60595 12.798 4.94719 15.7869 8.00143 18.8067C11.056 21.8265 15.438 19.5195 16.7896 19.5007L16.1114 18.6935Z" fill="#DCFFE9"/>
<path fill-rule="evenodd" clip-rule="evenodd" d="M15.7156 18.2614C14.6915 17.2435 13.5082 16.6199 12.3236 16.4174L11.2374 16.3611L11.2223 16.3397L10.4849 16.3015C8.90548 16.0315 7.3283 15.0128 6.12769 13.3092L5.20322 11.5844C4.53966 11.9893 3.83884 15.1692 7.08818 18.3817C10.3375 21.5942 14.9993 19.1399 16.4372 19.1198L15.7156 18.2614Z" fill="#7AECB2"/>
</svg>
