<svg width="32" height="41" viewBox="0 0 32 41" fill="none" xmlns="http://www.w3.org/2000/svg">
<path fill-rule="evenodd" clip-rule="evenodd" d="M5.33252 34.997C7.82837 37.902 11.5484 37.9509 13.6414 35.1062L21.5132 24.4073L20.5887 22.6824C19.3881 20.9789 17.8109 19.9601 16.2315 19.6901L15.4941 19.6519L15.479 19.6305L14.3929 19.5743C13.2083 19.3718 12.0249 18.7481 11.0008 17.7303L10.2792 16.8718L4.60312 24.5864C2.51011 27.4311 2.83669 32.0921 5.33252 34.997Z" fill="#93FFCE"/>
<path fill-rule="evenodd" clip-rule="evenodd" d="M12.0334 16.2374C13.0491 17.2667 14.1961 17.9398 15.3239 18.2194L16.3518 18.3549L16.3671 18.3761L17.0648 18.468C18.5686 18.8408 20.1064 19.9132 21.3218 21.5967L22.2776 23.279L28.1479 15.3004C29.7563 13.1143 29.5492 9.4874 27.8003 6.66875L26.9571 5.51678L25.9787 4.54864C23.6091 2.57362 20.7181 2.59451 19.1096 4.78058L11.3109 15.3802L12.0334 16.2374Z" fill="#24E082"/>
<path fill-rule="evenodd" clip-rule="evenodd" d="M19.9242 21.9505C18.9614 20.9937 17.8491 20.4074 16.7357 20.217L15.7146 20.1643L15.7003 20.1442L15.0071 20.1082C13.5226 19.8544 12.0398 18.8968 10.9114 17.2954L10.0424 15.6739C9.41869 16.0549 8.75993 19.0439 11.8142 22.0636C14.8688 25.0834 19.2508 22.7764 20.6024 22.7576L19.9242 21.9505Z" fill="#DCFFE9"/>
<path fill-rule="evenodd" clip-rule="evenodd" d="M19.5286 21.5183C18.5045 20.5004 17.3212 19.8768 16.1366 19.6743L15.0504 19.618L15.0353 19.5966L14.2979 19.5585C12.7185 19.2885 11.1413 18.2697 9.94068 16.5662L9.01621 14.8413C8.35265 15.2462 7.65183 18.4261 10.9012 21.6386C14.1505 24.8511 18.8123 22.3968 20.2502 22.3768L19.5286 21.5183Z" fill="#7AECB2"/>
</svg>
