<svg width="70" height="33" viewBox="0 0 70 33" fill="none" xmlns="http://www.w3.org/2000/svg">
<path d="M38 11.34C38 10.6 38.18 9.95 38.54 9.39C38.9 8.83 39.38 8.39 39.98 8.07C40.58 7.75 41.23 7.59 41.93 7.59C42.65 7.59 43.31 7.75 43.91 8.07C44.51 8.39 44.99 8.83 45.35 9.39C45.71 9.95 45.89 10.6 45.89 11.34C45.89 12.06 45.71 12.71 45.35 13.29C44.99 13.85 44.51 14.29 43.91 14.61C43.31 14.93 42.65 15.09 41.93 15.09C41.23 15.09 40.58 14.93 39.98 14.61C39.38 14.29 38.9 13.85 38.54 13.29C38.18 12.71 38 12.06 38 11.34ZM42.26 21.75C42.26 20.69 42.64 19.82 43.4 19.14C44.16 18.46 45.09 18.12 46.19 18.12C47.27 18.12 48.19 18.46 48.95 19.14C49.71 19.82 50.09 20.69 50.09 21.75C50.09 22.83 49.71 23.7 48.95 24.36C48.19 25.04 47.27 25.38 46.19 25.38C45.09 25.38 44.16 25.04 43.4 24.36C42.64 23.7 42.26 22.83 42.26 21.75ZM50.75 16.71C50.75 16.99 50.65 17.23 50.45 17.43C50.27 17.63 50.04 17.73 49.76 17.73C49.48 17.73 49.24 17.63 49.04 17.43C48.84 17.23 48.74 16.99 48.74 16.71V15C48.74 14.82 48.7 14.66 48.62 14.52C48.56 14.36 48.37 14.28 48.05 14.28H47.15C46.51 14.28 46.19 13.98 46.19 13.38C46.19 13.14 46.26 12.93 46.4 12.75C46.56 12.57 46.81 12.48 47.15 12.48H48.05C48.37 12.48 48.56 12.42 48.62 12.3C48.7 12.16 48.74 12 48.74 11.82V11.22C48.74 11 48.7 10.83 48.62 10.71C48.56 10.57 48.37 10.5 48.05 10.5H47.15C46.51 10.5 46.19 10.2 46.19 9.6C46.19 9.36 46.26 9.15 46.4 8.97C46.56 8.79 46.81 8.7 47.15 8.7H48.05C48.39 8.7 48.59 8.61 48.65 8.43C48.71 8.25 48.74 8.04 48.74 7.8V7.17C48.74 7.07 48.8 6.89 48.92 6.63C49.04 6.35 49.32 6.2 49.76 6.18C50.06 6.18 50.3 6.27 50.48 6.45C50.66 6.63 50.75 6.87 50.75 7.17V16.71ZM39.98 11.34C39.98 11.9 40.17 12.36 40.55 12.72C40.95 13.06 41.41 13.23 41.93 13.23C42.47 13.23 42.93 13.06 43.31 12.72C43.69 12.36 43.88 11.9 43.88 11.34C43.88 10.76 43.69 10.3 43.31 9.96C42.93 9.62 42.47 9.45 41.93 9.45C41.41 9.45 40.95 9.62 40.55 9.96C40.17 10.3 39.98 10.76 39.98 11.34ZM44.21 21.75C44.21 22.31 44.4 22.76 44.78 23.1C45.18 23.44 45.65 23.61 46.19 23.61C46.71 23.61 47.15 23.44 47.51 23.1C47.89 22.76 48.08 22.31 48.08 21.75C48.08 21.21 47.89 20.76 47.51 20.4C47.15 20.06 46.71 19.89 46.19 19.89C45.65 19.89 45.18 20.06 44.78 20.4C44.4 20.76 44.21 21.21 44.21 21.75Z" fill="white"/>
<path d="M54.223 12.36C54.223 11.7 54.383 11.13 54.703 10.65H53.923C53.303 10.65 52.993 10.34 52.993 9.72C52.993 9.1 53.303 8.79 53.923 8.79H56.323C56.623 8.79 56.773 8.58 56.773 8.16V6.96C56.773 6.68 56.873 6.45 57.073 6.27C57.273 6.09 57.513 6 57.793 6C58.073 6 58.303 6.09 58.483 6.27C58.683 6.45 58.783 6.68 58.783 6.96V8.13C58.783 8.39 58.803 8.56 58.843 8.64C58.903 8.72 59.033 8.77 59.233 8.79H61.483C61.763 8.79 61.993 8.88 62.173 9.06C62.373 9.22 62.473 9.44 62.473 9.72C62.473 10 62.373 10.23 62.173 10.41C61.993 10.57 61.763 10.65 61.483 10.65H60.823C60.983 10.83 61.103 11.1 61.183 11.46C61.283 11.8 61.333 12.1 61.333 12.36C61.333 13.34 60.983 14.15 60.283 14.79C59.583 15.41 58.753 15.72 57.793 15.72C56.813 15.72 55.973 15.41 55.273 14.79C54.573 14.15 54.223 13.34 54.223 12.36ZM69.343 16.71C69.343 16.99 69.253 17.23 69.073 17.43C68.893 17.63 68.663 17.73 68.383 17.73C68.103 17.73 67.863 17.63 67.663 17.43C67.483 17.23 67.393 16.99 67.393 16.71V13.71C67.393 13.49 67.333 13.29 67.213 13.11C67.113 12.91 66.873 12.81 66.493 12.81H66.253C65.953 12.83 65.733 12.93 65.593 13.11C65.473 13.27 65.413 13.47 65.413 13.71V16.56C65.413 16.84 65.323 17.08 65.143 17.28C64.963 17.48 64.733 17.58 64.453 17.58C64.153 17.58 63.913 17.48 63.733 17.28C63.553 17.08 63.463 16.84 63.463 16.56V8.25C63.463 7.59 63.793 7.26 64.453 7.26C64.913 7.28 65.183 7.43 65.263 7.71C65.363 7.97 65.413 8.15 65.413 8.25V9.96C65.413 10.22 65.463 10.46 65.563 10.68C65.663 10.9 65.903 11.01 66.283 11.01H66.523C66.923 10.99 67.163 10.88 67.243 10.68C67.343 10.46 67.393 10.22 67.393 9.96V8.25C67.393 8.15 67.443 7.97 67.543 7.71C67.663 7.43 67.943 7.28 68.383 7.26C69.023 7.26 69.343 7.59 69.343 8.25V16.71ZM56.053 12.3C56.053 12.78 56.223 13.17 56.563 13.47C56.923 13.75 57.333 13.89 57.793 13.89C58.233 13.89 58.613 13.75 58.933 13.47C59.273 13.17 59.443 12.78 59.443 12.3C59.443 11.8 59.273 11.4 58.933 11.1C58.613 10.8 58.233 10.65 57.793 10.65C57.333 10.65 56.923 10.8 56.563 11.1C56.223 11.4 56.053 11.8 56.053 12.3Z" fill="white"/>
<path fill-rule="evenodd" clip-rule="evenodd" d="M4.67538 28.4448C7.2577 30.8234 11.1066 30.8634 13.2721 28.5342L21.4167 19.774L20.4601 18.3617C19.218 16.9669 17.5861 16.1327 15.9519 15.9117L15.189 15.8804L15.1734 15.8629L14.0496 15.8168C12.824 15.651 11.5997 15.1404 10.5401 14.307L9.79347 13.6041L3.92071 19.9207C1.75519 22.2499 2.09308 26.0663 4.67538 28.4448Z" fill="white"/>
<path fill-rule="evenodd" clip-rule="evenodd" d="M11.6085 13.0847C12.6594 13.9274 13.8461 14.4786 15.013 14.7075L16.0765 14.8184L16.0923 14.8358L16.8142 14.9111C18.3701 15.2163 19.9612 16.0943 21.2186 17.4728L22.2075 18.8502L28.2813 12.3174C29.9454 10.5275 29.7311 7.55784 27.9216 5.24996L27.0492 4.30673L26.0369 3.51403C23.5852 1.89691 20.594 1.91401 18.9299 3.70394L10.8609 12.3828L11.6085 13.0847Z" fill="white"/>
<path fill-rule="evenodd" clip-rule="evenodd" d="M19.7728 17.7625C18.7767 16.9791 17.6258 16.499 16.4738 16.3432L15.4174 16.3L15.4026 16.2835L14.6854 16.254C13.1495 16.0463 11.6153 15.2622 10.4478 13.951L9.54864 12.6233C8.90337 12.9353 8.22179 15.3826 11.3818 17.8551C14.5423 20.3277 19.0761 18.4388 20.4745 18.4233L19.7728 17.7625Z" fill="#DCFFE9"/>
<path fill-rule="evenodd" clip-rule="evenodd" d="M19.3635 17.4086C18.3039 16.5752 17.0795 16.0645 15.8539 15.8987L14.7301 15.8527L14.7145 15.8351L13.9516 15.8039C12.3174 15.5828 10.6856 14.7487 9.44336 13.3538L8.48686 11.9415C7.80031 12.2731 7.07521 14.8767 10.4371 17.5071C13.799 20.1374 18.6223 18.1279 20.1101 18.1115L19.3635 17.4086Z" fill="#7AECB2"/>
</svg>
